<?xml version="1.0" encoding="UTF-8" standalone="no"?>
<!DOCTYPE svg PUBLIC "-//W3C//DTD SVG 1.1//EN" "http://www.w3.org/Graphics/SVG/1.1/DTD/svg11.dtd">
<svg xmlns="http://www.w3.org/2000/svg" version="1.1" viewBox="0.00 0.00 960.00 540.00">
<g stroke-width="2.00" fill="none" stroke-linecap="butt">
<path stroke="#8cb5e9" vector-effect="non-scaling-stroke" d="
  M 431.97 242.06
  A 2.59 2.58 11.2 0 0 429.58 243.65
  L 421.69 262.56
  A 0.53 0.53 0.0 0 1 420.71 262.56
  L 412.88 243.98
  A 3.42 3.40 78.5 0 0 409.74 241.89
  L 409.42 241.89
  A 1.85 1.84 78.6 0 0 407.72 244.45
  L 418.18 269.29
  A 1.60 1.60 0.0 0 0 419.15 270.19
  Q 420.24 270.56 422.57 270.61
  A 1.78 1.76 -77.8 0 0 424.24 269.52
  L 435.23 243.19
  A 0.82 0.82 0.0 0 0 434.47 242.06
  L 431.97 242.06"
/>
<path stroke="#8cb5e9" vector-effect="non-scaling-stroke" d="
  M 499.72 249.07
  L 504.19 259.71
  A 0.74 0.74 0.0 0 1 503.51 260.74
  L 499.07 260.74
  A 1.79 1.78 -79.9 0 0 497.40 261.91
  L 496.93 263.16
  A 1.02 1.02 0.0 0 0 497.88 264.54
  L 505.15 264.54
  A 0.82 0.81 78.6 0 1 505.90 265.04
  L 507.75 269.44
  A 1.65 1.64 -11.2 0 0 509.27 270.45
  L 512.04 270.45
  A 1.05 1.04 -11.4 0 0 513.01 269.00
  C 509.88 261.44 506.13 250.50 502.78 243.71
  Q 501.98 242.10 499.74 241.99
  Q 496.49 241.84 495.49 244.76
  Q 494.35 248.09 485.94 269.25
  A 0.89 0.89 0.0 0 0 486.76 270.47
  L 489.72 270.47
  A 1.85 1.83 -79.6 0 0 491.44 269.27
  L 498.96 249.09
  A 0.41 0.41 0.0 0 1 499.72 249.07"
/>
<path stroke="#8cb5e9" vector-effect="non-scaling-stroke" d="
  M 520.32 260.65
  L 536.19 260.65
  A 0.85 0.84 -87.0 0 0 537.03 259.89
  C 537.88 251.21 531.32 245.86 522.96 247.96
  Q 517.16 249.42 514.99 256.02
  C 513.17 261.56 516.70 268.45 522.12 270.04
  C 526.79 271.42 533.60 270.47 535.70 265.55
  A 0.70 0.70 0.0 0 0 535.17 264.58
  Q 532.60 264.14 530.84 265.04
  Q 528.21 266.40 527.54 266.55
  Q 522.20 267.70 519.63 261.71
  A 0.76 0.75 78.2 0 1 520.32 260.65"
/>
<path stroke="#8cb5e9" vector-effect="non-scaling-stroke" d="
  M 458.3614 258.5521
  A 12.72 11.54 -3.1 0 0 445.0359 247.7169
  A 12.72 11.54 -3.1 0 0 432.9586 259.9279
  A 12.72 11.54 -3.1 0 0 446.2841 270.7631
  A 12.72 11.54 -3.1 0 0 458.3614 258.5521"
/>
<path stroke="#8cb5e9" vector-effect="non-scaling-stroke" d="
  M 470.18 263.06
  Q 470.52 263.06 470.62 263.19
  Q 472.77 266.12 474.96 269.15
  A 2.98 2.97 -17.9 0 0 477.37 270.38
  L 480.21 270.38
  A 0.77 0.77 0.0 0 0 480.83 269.15
  L 473.76 259.58
  A 0.69 0.69 0.0 0 1 473.77 258.75
  L 481.12 249.56
  A 1.16 1.16 0.0 0 0 480.22 247.67
  L 478.37 247.67
  A 4.41 4.40 19.9 0 0 474.99 249.25
  Q 472.98 251.65 470.71 255.22
  Q 470.55 255.47 470.16 255.47
  Q 469.77 255.47 469.61 255.23
  Q 467.33 251.66 465.31 249.27
  A 4.41 4.40 -20.2 0 0 461.92 247.70
  L 460.07 247.71
  A 1.16 1.16 0.0 0 0 459.18 249.60
  L 466.56 258.76
  A 0.69 0.69 0.0 0 1 466.58 259.59
  L 459.55 269.19
  A 0.77 0.77 0.0 0 0 460.17 270.42
  L 463.01 270.41
  A 2.98 2.97 17.7 0 0 465.42 269.17
  Q 467.59 266.13 469.74 263.20
  Q 469.84 263.06 470.18 263.06"
/>
<path stroke="#8cb5e9" vector-effect="non-scaling-stroke" d="
  M 543.79 270.51
  A 1.10 1.10 0.0 0 0 544.89 269.39
  Q 544.69 260.54 544.76 258.70
  C 544.97 253.50 545.37 252.43 550.74 251.69
  A 1.56 1.55 86.0 0 0 552.07 250.15
  L 552.07 249.27
  A 1.46 1.46 0.0 0 0 550.58 247.81
  Q 547.50 247.88 544.20 248.93
  C 541.21 249.88 540.03 251.63 540.08 254.96
  Q 540.14 260.33 540.10 269.43
  A 1.08 1.08 0.0 0 0 541.18 270.51
  L 543.79 270.51"
/>
<path stroke="#8cb5e9" vector-effect="non-scaling-stroke" d="
  M 575.8538 257.2557
  A 9.35 9.35 0.0 0 0 566.5693 247.8406
  L 563.6093 247.8199
  A 9.35 9.35 0.0 0 0 554.1943 257.1044
  L 554.1662 261.1243
  A 9.35 9.35 0.0 0 0 563.4507 270.5394
  L 566.4107 270.5601
  A 9.35 9.35 0.0 0 0 575.8257 261.2756
  L 575.8538 257.2557"
/>
<path stroke="#8cb5e9" vector-effect="non-scaling-stroke" d="
  M 519.84 256.99
  L 532.36 256.97
  A 0.03 0.03 0.0 0 0 532.39 256.94
  L 532.39 256.89
  A 6.15 5.00 -0.1 0 0 526.24 251.90
  L 525.96 251.90
  A 6.15 5.00 -0.1 0 0 519.81 256.91
  L 519.81 256.96
  A 0.03 0.03 0.0 0 0 519.84 256.99"
/>
<path stroke="#8cb5e9" vector-effect="non-scaling-stroke" d="
  M 438.0000 258.2762
  A 7.61 7.35 -172.8 0 0 444.6288 266.5220
  A 7.61 7.35 -172.8 0 0 453.1000 260.1838
  A 7.61 7.35 -172.8 0 0 446.4712 251.9380
  A 7.61 7.35 -172.8 0 0 438.0000 258.2762"
/>
<path stroke="#8cb5e9" vector-effect="non-scaling-stroke" d="
  M 570.90 256.60
  A 4.77 4.77 0.0 0 0 566.13 251.83
  L 563.89 251.83
  A 4.77 4.77 0.0 0 0 559.12 256.60
  L 559.12 261.84
  A 4.77 4.77 0.0 0 0 563.89 266.61
  L 566.13 266.61
  A 4.77 4.77 0.0 0 0 570.90 261.84
  L 570.90 256.60"
/>
</g>
<path fill="#ffffff" d="
  M 960.00 0.00
  L 960.00 540.00
  L 0.00 540.00
  L 0.00 0.00
  L 960.00 0.00
  Z
  M 431.97 242.06
  A 2.59 2.58 11.2 0 0 429.58 243.65
  L 421.69 262.56
  A 0.53 0.53 0.0 0 1 420.71 262.56
  L 412.88 243.98
  A 3.42 3.40 78.5 0 0 409.74 241.89
  L 409.42 241.89
  A 1.85 1.84 78.6 0 0 407.72 244.45
  L 418.18 269.29
  A 1.60 1.60 0.0 0 0 419.15 270.19
  Q 420.24 270.56 422.57 270.61
  A 1.78 1.76 -77.8 0 0 424.24 269.52
  L 435.23 243.19
  A 0.82 0.82 0.0 0 0 434.47 242.06
  L 431.97 242.06
  Z
  M 499.72 249.07
  L 504.19 259.71
  A 0.74 0.74 0.0 0 1 503.51 260.74
  L 499.07 260.74
  A 1.79 1.78 -79.9 0 0 497.40 261.91
  L 496.93 263.16
  A 1.02 1.02 0.0 0 0 497.88 264.54
  L 505.15 264.54
  A 0.82 0.81 78.6 0 1 505.90 265.04
  L 507.75 269.44
  A 1.65 1.64 -11.2 0 0 509.27 270.45
  L 512.04 270.45
  A 1.05 1.04 -11.4 0 0 513.01 269.00
  C 509.88 261.44 506.13 250.50 502.78 243.71
  Q 501.98 242.10 499.74 241.99
  Q 496.49 241.84 495.49 244.76
  Q 494.35 248.09 485.94 269.25
  A 0.89 0.89 0.0 0 0 486.76 270.47
  L 489.72 270.47
  A 1.85 1.83 -79.6 0 0 491.44 269.27
  L 498.96 249.09
  A 0.41 0.41 0.0 0 1 499.72 249.07
  Z
  M 520.32 260.65
  L 536.19 260.65
  A 0.85 0.84 -87.0 0 0 537.03 259.89
  C 537.88 251.21 531.32 245.86 522.96 247.96
  Q 517.16 249.42 514.99 256.02
  C 513.17 261.56 516.70 268.45 522.12 270.04
  C 526.79 271.42 533.60 270.47 535.70 265.55
  A 0.70 0.70 0.0 0 0 535.17 264.58
  Q 532.60 264.14 530.84 265.04
  Q 528.21 266.40 527.54 266.55
  Q 522.20 267.70 519.63 261.71
  A 0.76 0.75 78.2 0 1 520.32 260.65
  Z
  M 458.3614 258.5521
  A 12.72 11.54 -3.1 0 0 445.0359 247.7169
  A 12.72 11.54 -3.1 0 0 432.9586 259.9279
  A 12.72 11.54 -3.1 0 0 446.2841 270.7631
  A 12.72 11.54 -3.1 0 0 458.3614 258.5521
  Z
  M 470.18 263.06
  Q 470.52 263.06 470.62 263.19
  Q 472.77 266.12 474.96 269.15
  A 2.98 2.97 -17.9 0 0 477.37 270.38
  L 480.21 270.38
  A 0.77 0.77 0.0 0 0 480.83 269.15
  L 473.76 259.58
  A 0.69 0.69 0.0 0 1 473.77 258.75
  L 481.12 249.56
  A 1.16 1.16 0.0 0 0 480.22 247.67
  L 478.37 247.67
  A 4.41 4.40 19.9 0 0 474.99 249.25
  Q 472.98 251.65 470.71 255.22
  Q 470.55 255.47 470.16 255.47
  Q 469.77 255.47 469.61 255.23
  Q 467.33 251.66 465.31 249.27
  A 4.41 4.40 -20.2 0 0 461.92 247.70
  L 460.07 247.71
  A 1.16 1.16 0.0 0 0 459.18 249.60
  L 466.56 258.76
  A 0.69 0.69 0.0 0 1 466.58 259.59
  L 459.55 269.19
  A 0.77 0.77 0.0 0 0 460.17 270.42
  L 463.01 270.41
  A 2.98 2.97 17.7 0 0 465.42 269.17
  Q 467.59 266.13 469.74 263.20
  Q 469.84 263.06 470.18 263.06
  Z
  M 543.79 270.51
  A 1.10 1.10 0.0 0 0 544.89 269.39
  Q 544.69 260.54 544.76 258.70
  C 544.97 253.50 545.37 252.43 550.74 251.69
  A 1.56 1.55 86.0 0 0 552.07 250.15
  L 552.07 249.27
  A 1.46 1.46 0.0 0 0 550.58 247.81
  Q 547.50 247.88 544.20 248.93
  C 541.21 249.88 540.03 251.63 540.08 254.96
  Q 540.14 260.33 540.10 269.43
  A 1.08 1.08 0.0 0 0 541.18 270.51
  L 543.79 270.51
  Z
  M 575.8538 257.2557
  A 9.35 9.35 0.0 0 0 566.5693 247.8406
  L 563.6093 247.8199
  A 9.35 9.35 0.0 0 0 554.1943 257.1044
  L 554.1662 261.1243
  A 9.35 9.35 0.0 0 0 563.4507 270.5394
  L 566.4107 270.5601
  A 9.35 9.35 0.0 0 0 575.8257 261.2756
  L 575.8538 257.2557
  Z"
/>
<path fill="#196ad2" d="
  M 431.97 242.06
  L 434.47 242.06
  A 0.82 0.82 0.0 0 1 435.23 243.19
  L 424.24 269.52
  A 1.78 1.76 -77.8 0 1 422.57 270.61
  Q 420.24 270.56 419.15 270.19
  A 1.60 1.60 0.0 0 1 418.18 269.29
  L 407.72 244.45
  A 1.85 1.84 78.6 0 1 409.42 241.89
  L 409.74 241.89
  A 3.42 3.40 78.5 0 1 412.88 243.98
  L 420.71 262.56
  A 0.53 0.53 0.0 0 0 421.69 262.56
  L 429.58 243.65
  A 2.59 2.58 11.2 0 1 431.97 242.06
  Z"
/>
<path fill="#196ad2" d="
  M 499.72 249.07
  A 0.41 0.41 0.0 0 0 498.96 249.09
  L 491.44 269.27
  A 1.85 1.83 -79.6 0 1 489.72 270.47
  L 486.76 270.47
  A 0.89 0.89 0.0 0 1 485.94 269.25
  Q 494.35 248.09 495.49 244.76
  Q 496.49 241.84 499.74 241.99
  Q 501.98 242.10 502.78 243.71
  C 506.13 250.50 509.88 261.44 513.01 269.00
  A 1.05 1.04 -11.4 0 1 512.04 270.45
  L 509.27 270.45
  A 1.65 1.64 -11.2 0 1 507.75 269.44
  L 505.90 265.04
  A 0.82 0.81 78.6 0 0 505.15 264.54
  L 497.88 264.54
  A 1.02 1.02 0.0 0 1 496.93 263.16
  L 497.40 261.91
  A 1.79 1.78 -79.9 0 1 499.07 260.74
  L 503.51 260.74
  A 0.74 0.74 0.0 0 0 504.19 259.71
  L 499.72 249.07
  Z"
/>
<path fill="#196ad2" d="
  M 520.32 260.65
  A 0.76 0.75 78.2 0 0 519.63 261.71
  Q 522.20 267.70 527.54 266.55
  Q 528.21 266.40 530.84 265.04
  Q 532.60 264.14 535.17 264.58
  A 0.70 0.70 0.0 0 1 535.70 265.55
  C 533.60 270.47 526.79 271.42 522.12 270.04
  C 516.70 268.45 513.17 261.56 514.99 256.02
  Q 517.16 249.42 522.96 247.96
  C 531.32 245.86 537.88 251.21 537.03 259.89
  A 0.85 0.84 -87.0 0 1 536.19 260.65
  L 520.32 260.65
  Z
  M 519.84 256.99
  L 532.36 256.97
  A 0.03 0.03 0.0 0 0 532.39 256.94
  L 532.39 256.89
  A 6.15 5.00 -0.1 0 0 526.24 251.90
  L 525.96 251.90
  A 6.15 5.00 -0.1 0 0 519.81 256.91
  L 519.81 256.96
  A 0.03 0.03 0.0 0 0 519.84 256.99
  Z"
/>
<path fill="#196ad2" d="
  M 458.3614 258.5521
  A 12.72 11.54 -3.1 0 1 446.2841 270.7631
  A 12.72 11.54 -3.1 0 1 432.9586 259.9279
  A 12.72 11.54 -3.1 0 1 445.0359 247.7169
  A 12.72 11.54 -3.1 0 1 458.3614 258.5521
  Z
  M 438.0000 258.2762
  A 7.61 7.35 -172.8 0 0 444.6288 266.5220
  A 7.61 7.35 -172.8 0 0 453.1000 260.1838
  A 7.61 7.35 -172.8 0 0 446.4712 251.9380
  A 7.61 7.35 -172.8 0 0 438.0000 258.2762
  Z"
/>
<path fill="#196ad2" d="
  M 470.16 255.47
  Q 470.55 255.47 470.71 255.22
  Q 472.98 251.65 474.99 249.25
  A 4.41 4.40 19.9 0 1 478.37 247.67
  L 480.22 247.67
  A 1.16 1.16 0.0 0 1 481.12 249.56
  L 473.77 258.75
  A 0.69 0.69 0.0 0 0 473.76 259.58
  L 480.83 269.15
  A 0.77 0.77 0.0 0 1 480.21 270.38
  L 477.37 270.38
  A 2.98 2.97 -17.9 0 1 474.96 269.15
  Q 472.77 266.12 470.62 263.19
  Q 470.52 263.06 470.18 263.06
  Q 469.84 263.06 469.74 263.20
  Q 467.59 266.13 465.42 269.17
  A 2.98 2.97 17.7 0 1 463.01 270.41
  L 460.17 270.42
  A 0.77 0.77 0.0 0 1 459.55 269.19
  L 466.58 259.59
  A 0.69 0.69 0.0 0 0 466.56 258.76
  L 459.18 249.60
  A 1.16 1.16 0.0 0 1 460.07 247.71
  L 461.92 247.70
  A 4.41 4.40 -20.2 0 1 465.31 249.27
  Q 467.33 251.66 469.61 255.23
  Q 469.77 255.47 470.16 255.47
  Z"
/>
<path fill="#196ad2" d="
  M 540.10 269.43
  Q 540.14 260.33 540.08 254.96
  C 540.03 251.63 541.21 249.88 544.20 248.93
  Q 547.50 247.88 550.58 247.81
  A 1.46 1.46 0.0 0 1 552.07 249.27
  L 552.07 250.15
  A 1.56 1.55 86.0 0 1 550.74 251.69
  C 545.37 252.43 544.97 253.50 544.76 258.70
  Q 544.69 260.54 544.89 269.39
  A 1.10 1.10 0.0 0 1 543.79 270.51
  L 541.18 270.51
  A 1.08 1.08 0.0 0 1 540.10 269.43
  Z"
/>
<path fill="#196ad2" d="
  M 575.8257 261.2756
  A 9.35 9.35 0.0 0 1 566.4107 270.5601
  L 563.4507 270.5394
  A 9.35 9.35 0.0 0 1 554.1662 261.1243
  L 554.1943 257.1044
  A 9.35 9.35 0.0 0 1 563.6093 247.8199
  L 566.5693 247.8406
  A 9.35 9.35 0.0 0 1 575.8538 257.2557
  L 575.8257 261.2756
  Z
  M 570.90 256.60
  A 4.77 4.77 0.0 0 0 566.13 251.83
  L 563.89 251.83
  A 4.77 4.77 0.0 0 0 559.12 256.60
  L 559.12 261.84
  A 4.77 4.77 0.0 0 0 563.89 266.61
  L 566.13 266.61
  A 4.77 4.77 0.0 0 0 570.90 261.84
  L 570.90 256.60
  Z"
/>
<path fill="#ffffff" d="
  M 519.84 256.99
  A 0.03 0.03 0.0 0 1 519.81 256.96
  L 519.81 256.91
  A 6.15 5.00 -0.1 0 1 525.96 251.90
  L 526.24 251.90
  A 6.15 5.00 -0.1 0 1 532.39 256.89
  L 532.39 256.94
  A 0.03 0.03 0.0 0 1 532.36 256.97
  L 519.84 256.99
  Z"
/>
<rect fill="#ffffff" x="559.12" y="251.83" width="11.78" height="14.78" rx="4.77"/>
<ellipse fill="#ffffff" cx="0.00" cy="0.00" transform="translate(445.55,259.23) rotate(-172.8)" rx="7.61" ry="7.35"/>
</svg>
